<svg width="800" height="888" viewBox="0 0 800 888" fill="none" xmlns="http://www.w3.org/2000/svg">
<g clip-path="url(#clip0_10283_2)">
<path d="M800 0H0V888H800V0Z" fill="#0C0C14"/>
<path d="M198.4 866.4L240 875.2L250.4 860L324.8 842.4L364 854.4L374.4 834.4L460 831.2L496.8 815.2L592.8 812.8L644.8 806.4L676 812.8L750.4 785.6L761.6 781.6L771.2 761.6L712 752L730.4 742.4L736 730.4L758.4 716L796 673.6L760 637.6L700 646.4L688 629.6L683.2 620.8L664 585.6L662.4 542.4L624 529.6L606.4 512.8L545.6 479.2L540.8 471.2L497.6 410.4L448 447.2L440.8 460.8L410.4 472.8L372 493.6L368 510.4L398.4 548L424 540L412 566.4L414.4 580.8L416 600L400.8 601.6L376.8 606.4L349.6 605.6L285.6 607.2L313.6 597.6L276.8 641.6L273.6 648.8L332 654.4L315.2 692L230.4 720L250.4 738.4H280L340.8 742.4L401.6 753.6L416.8 746.4L442.4 750.4L448.8 755.2L417.6 764L377.6 776L331.2 785.6L319.2 791.2L280 816.8L260.8 828.8L216.8 855.2L198.4 866.4Z" fill="#13131E" stroke="#353555" stroke-width="1.5" stroke-linejoin="round"/>
<path d="M497.6 410.4L485.6 399.2L455.2 392.8L438.4 387.2L401.6 393.6L358.4 390.4L341.6 382.4L424.8 355.2L490.4 300.8L496 256.8L351.2 264.8L301.6 264L333.6 241.6L337.6 234.4L408.8 196.8L410.4 180.8L256 182.4L236.8 220L243.2 240.8L201.6 254.4L215.2 280.8L189.6 312L246.4 326.4L218.4 359.2L194.4 447.2L208 437.6L285.6 435.2L267.2 453.6L253.6 479.2L268 500.8L367.2 466.4L410.4 472.8L440.8 460.8L448 447.2L497.6 410.4Z" fill="#13131E" stroke="#353555" stroke-width="1.5" stroke-linejoin="round"/>
<path d="M123.2 455.2H156.8L172 461.6L190.4 484L181.6 504L148.8 537.6L81.6004 536.8L26.4004 521.6L70.4004 472L100 468L123.2 455.2Z" fill="#13131E" stroke="#353555" stroke-width="1.5" stroke-linejoin="round"/>
<path opacity="0.7" d="M497.6 410.4L472 432L448 447.2L440.8 460.8L410.4 472.8" stroke="#252538" stroke-dasharray="4 3"/>
<path opacity="0.7" d="M408.8 602.4L415.2 618.4L404 643.2V672L436.8 722.4L442.4 750.4" stroke="#252538" stroke-dasharray="4 3"/>
<path opacity="0.7" d="M412 566.4L464 576L536 585.6L608 592L664 585.6" stroke="#252538" stroke-dasharray="4 3"/>
<path opacity="0.7" d="M404 672L496 676L576 680H656L796 673.6" stroke="#252538" stroke-dasharray="4 3"/>
<path opacity="0.7" d="M218.4 359.2L272 340L328 320H384L490.4 300.8" stroke="#252538" stroke-dasharray="4 3"/>
<path d="M-29.4712 188.47L-28.4883 188.384C-28.4417 188.778 -28.3343 189.102 -28.166 189.356C-27.9941 189.607 -27.7292 189.811 -27.3711 189.969C-27.013 190.123 -26.6102 190.2 -26.1626 190.2C-25.7651 190.2 -25.4142 190.141 -25.1099 190.022C-24.8055 189.904 -24.5799 189.743 -24.4331 189.539C-24.2827 189.331 -24.2075 189.106 -24.2075 188.862C-24.2075 188.615 -24.2791 188.4 -24.4224 188.218C-24.5656 188.032 -24.8019 187.876 -25.1313 187.75C-25.3426 187.668 -25.8099 187.541 -26.5332 187.369C-27.2565 187.194 -27.7632 187.029 -28.0532 186.875C-28.4292 186.678 -28.7103 186.435 -28.8965 186.145C-29.0791 185.851 -29.1704 185.523 -29.1704 185.162C-29.1704 184.764 -29.0576 184.394 -28.832 184.05C-28.6064 183.702 -28.277 183.439 -27.8438 183.26C-27.4105 183.081 -26.9289 182.992 -26.3989 182.992C-25.8153 182.992 -25.3014 183.087 -24.8574 183.276C-24.4098 183.463 -24.0661 183.738 -23.8262 184.104C-23.5863 184.469 -23.4574 184.882 -23.4395 185.344L-24.4385 185.419C-24.4922 184.922 -24.6748 184.546 -24.9863 184.292C-25.2943 184.037 -25.7508 183.91 -26.356 183.91C-26.9862 183.91 -27.4463 184.027 -27.7363 184.259C-28.0228 184.488 -28.166 184.766 -28.166 185.092C-28.166 185.375 -28.064 185.607 -27.8599 185.79C-27.6593 185.973 -27.1366 186.161 -26.2915 186.354C-25.4429 186.544 -24.861 186.71 -24.5459 186.854C-24.0876 187.065 -23.7492 187.333 -23.5308 187.659C-23.3123 187.981 -23.2031 188.354 -23.2031 188.776C-23.2031 189.195 -23.3231 189.591 -23.563 189.963C-23.8029 190.332 -24.1484 190.62 -24.5996 190.828C-25.0472 191.032 -25.5521 191.134 -26.1143 191.134C-26.8268 191.134 -27.4248 191.03 -27.9082 190.823C-28.388 190.615 -28.7658 190.304 -29.0415 189.888C-29.3136 189.469 -29.4569 188.997 -29.4712 188.47ZM-16.1616 188.239L-15.1196 188.502C-15.3381 189.358 -15.7319 190.012 -16.3013 190.463C-16.867 190.91 -17.5599 191.134 -18.3799 191.134C-19.2285 191.134 -19.9196 190.962 -20.4531 190.619C-20.9831 190.271 -21.3877 189.77 -21.667 189.115C-21.9427 188.459 -22.0806 187.756 -22.0806 187.004C-22.0806 186.184 -21.9248 185.47 -21.6133 184.861C-21.2982 184.249 -20.8524 183.785 -20.2759 183.47C-19.6958 183.151 -19.0584 182.992 -18.3638 182.992C-17.576 182.992 -16.9136 183.192 -16.3765 183.593C-15.8394 183.994 -15.4652 184.558 -15.2539 185.285L-16.2798 185.527C-16.4624 184.954 -16.7274 184.537 -17.0747 184.275C-17.422 184.014 -17.8589 183.883 -18.3853 183.883C-18.9904 183.883 -19.4971 184.028 -19.9053 184.318C-20.3099 184.608 -20.5946 184.999 -20.7593 185.489C-20.924 185.976 -21.0063 186.479 -21.0063 186.999C-21.0063 187.668 -20.9097 188.254 -20.7163 188.755C-20.5194 189.253 -20.215 189.625 -19.8032 189.872C-19.3914 190.119 -18.9456 190.243 -18.4658 190.243C-17.8822 190.243 -17.388 190.074 -16.9834 189.738C-16.5788 189.401 -16.3049 188.902 -16.1616 188.239ZM-14.1475 187.165C-14.1475 185.858 -13.7965 184.836 -13.0947 184.098C-12.3929 183.357 -11.487 182.986 -10.377 182.986C-9.65007 182.986 -8.99479 183.16 -8.41113 183.507C-7.82747 183.855 -7.38346 184.34 -7.0791 184.963C-6.77116 185.582 -6.61719 186.286 -6.61719 187.074C-6.61719 187.872 -6.77832 188.587 -7.10059 189.217C-7.42285 189.847 -7.87939 190.325 -8.47021 190.651C-9.06104 190.973 -9.6984 191.134 -10.3823 191.134C-11.1235 191.134 -11.786 190.955 -12.3696 190.597C-12.9533 190.239 -13.3955 189.75 -13.6963 189.131C-13.9971 188.511 -14.1475 187.856 -14.1475 187.165ZM-13.0732 187.181C-13.0732 188.13 -12.819 188.878 -12.3105 189.426C-11.7985 189.971 -11.1576 190.243 -10.3877 190.243C-9.60352 190.243 -8.95898 189.967 -8.4541 189.416C-7.94564 188.864 -7.69141 188.082 -7.69141 187.068C-7.69141 186.427 -7.80062 185.869 -8.01904 185.393C-8.23389 184.913 -8.55078 184.542 -8.96973 184.281C-9.38509 184.016 -9.85238 183.883 -10.3716 183.883C-11.1092 183.883 -11.7448 184.138 -12.2783 184.646C-12.8083 185.151 -13.0732 185.996 -13.0732 187.181ZM-3.26562 191V184.055H-5.85986V183.126H0.381348V184.055H-2.22363V191H-3.26562ZM1.4126 191V183.126H2.45459V190.071H6.33252V191H1.4126ZM6.71387 191L9.73779 183.126H10.8604L14.083 191H12.896L11.9775 188.615H8.68506L7.82031 191H6.71387ZM8.98584 187.767H11.6553L10.8335 185.586C10.5828 184.924 10.3966 184.379 10.2749 183.953C10.1746 184.458 10.0332 184.959 9.85059 185.457L8.98584 187.767ZM14.9048 191V183.126H15.9736L20.1094 189.308V183.126H21.1084V191H20.0396L15.9038 184.812V191H14.9048ZM22.8647 191V183.126H25.5771C26.1895 183.126 26.6567 183.164 26.979 183.239C27.4302 183.343 27.8151 183.531 28.1338 183.803C28.5492 184.154 28.8589 184.603 29.063 185.151C29.2707 185.695 29.3745 186.318 29.3745 187.02C29.3745 187.618 29.3047 188.148 29.165 188.61C29.0254 189.072 28.8464 189.455 28.6279 189.759C28.4095 190.06 28.1696 190.298 27.9082 190.474C27.6504 190.646 27.3371 190.776 26.9683 190.866C26.603 190.955 26.1823 191 25.7061 191H22.8647ZM23.9067 190.071H25.5879C26.1071 190.071 26.5135 190.022 26.8071 189.926C27.1043 189.829 27.3407 189.693 27.5161 189.518C27.7632 189.271 27.9548 188.939 28.0908 188.524C28.2305 188.105 28.3003 187.598 28.3003 187.004C28.3003 186.18 28.1642 185.548 27.8921 185.108C27.6235 184.664 27.2959 184.367 26.9092 184.216C26.6299 184.109 26.1805 184.055 25.561 184.055H23.9067V190.071Z" fill="#454560"/>
<path d="M335.785 388.992L336.543 389.184C336.384 389.806 336.098 390.281 335.684 390.609C335.272 390.935 334.768 391.098 334.172 391.098C333.555 391.098 333.052 390.973 332.664 390.723C332.279 390.47 331.984 390.105 331.781 389.629C331.581 389.152 331.48 388.641 331.48 388.094C331.48 387.497 331.594 386.978 331.82 386.535C332.049 386.09 332.374 385.753 332.793 385.523C333.215 385.292 333.678 385.176 334.184 385.176C334.757 385.176 335.238 385.322 335.629 385.613C336.02 385.905 336.292 386.315 336.445 386.844L335.699 387.02C335.566 386.603 335.374 386.299 335.121 386.109C334.868 385.919 334.551 385.824 334.168 385.824C333.728 385.824 333.359 385.93 333.062 386.141C332.768 386.352 332.561 386.635 332.441 386.992C332.322 387.346 332.262 387.712 332.262 388.09C332.262 388.577 332.332 389.003 332.473 389.367C332.616 389.729 332.837 390 333.137 390.18C333.436 390.359 333.76 390.449 334.109 390.449C334.534 390.449 334.893 390.327 335.188 390.082C335.482 389.837 335.681 389.474 335.785 388.992ZM340.23 389.664L340.957 389.754C340.842 390.178 340.63 390.508 340.32 390.742C340.01 390.977 339.615 391.094 339.133 391.094C338.526 391.094 338.044 390.908 337.688 390.535C337.333 390.16 337.156 389.635 337.156 388.961C337.156 388.263 337.336 387.721 337.695 387.336C338.055 386.951 338.521 386.758 339.094 386.758C339.648 386.758 340.102 386.947 340.453 387.324C340.805 387.702 340.98 388.233 340.98 388.918C340.98 388.96 340.979 389.022 340.977 389.105H337.883C337.909 389.561 338.038 389.91 338.27 390.152C338.501 390.395 338.79 390.516 339.137 390.516C339.395 390.516 339.615 390.448 339.797 390.312C339.979 390.177 340.124 389.961 340.23 389.664ZM337.922 388.527H340.238C340.207 388.178 340.118 387.917 339.973 387.742C339.749 387.471 339.458 387.336 339.102 387.336C338.779 387.336 338.507 387.444 338.285 387.66C338.066 387.876 337.945 388.165 337.922 388.527ZM341.844 391V386.852H342.477V387.441C342.781 386.986 343.221 386.758 343.797 386.758C344.047 386.758 344.276 386.803 344.484 386.895C344.695 386.983 344.853 387.1 344.957 387.246C345.061 387.392 345.134 387.565 345.176 387.766C345.202 387.896 345.215 388.124 345.215 388.449V391H344.512V388.477C344.512 388.19 344.484 387.977 344.43 387.836C344.375 387.693 344.277 387.579 344.137 387.496C343.999 387.41 343.836 387.367 343.648 387.367C343.349 387.367 343.09 387.462 342.871 387.652C342.655 387.842 342.547 388.203 342.547 388.734V391H341.844ZM347.832 390.371L347.934 390.992C347.736 391.034 347.559 391.055 347.402 391.055C347.147 391.055 346.949 391.014 346.809 390.934C346.668 390.853 346.569 390.747 346.512 390.617C346.454 390.484 346.426 390.207 346.426 389.785V387.398H345.91V386.852H346.426V385.824L347.125 385.402V386.852H347.832V387.398H347.125V389.824C347.125 390.025 347.137 390.154 347.16 390.211C347.186 390.268 347.227 390.314 347.281 390.348C347.339 390.382 347.419 390.398 347.523 390.398C347.602 390.398 347.704 390.389 347.832 390.371ZM348.516 391V386.852H349.148V387.48C349.31 387.186 349.458 386.992 349.594 386.898C349.732 386.805 349.883 386.758 350.047 386.758C350.284 386.758 350.525 386.833 350.77 386.984L350.527 387.637C350.355 387.535 350.184 387.484 350.012 387.484C349.858 387.484 349.72 387.531 349.598 387.625C349.475 387.716 349.388 387.844 349.336 388.008C349.258 388.258 349.219 388.531 349.219 388.828V391H348.516ZM353.895 390.488C353.634 390.71 353.383 390.866 353.141 390.957C352.901 391.048 352.643 391.094 352.367 391.094C351.911 391.094 351.561 390.983 351.316 390.762C351.072 390.538 350.949 390.253 350.949 389.906C350.949 389.703 350.995 389.518 351.086 389.352C351.18 389.182 351.301 389.047 351.449 388.945C351.6 388.844 351.77 388.767 351.957 388.715C352.095 388.678 352.303 388.643 352.582 388.609C353.15 388.542 353.568 388.461 353.836 388.367C353.839 388.271 353.84 388.21 353.84 388.184C353.84 387.897 353.773 387.695 353.641 387.578C353.461 387.419 353.194 387.34 352.84 387.34C352.509 387.34 352.264 387.398 352.105 387.516C351.949 387.63 351.833 387.835 351.758 388.129L351.07 388.035C351.133 387.741 351.236 387.504 351.379 387.324C351.522 387.142 351.729 387.003 352 386.906C352.271 386.807 352.585 386.758 352.941 386.758C353.296 386.758 353.583 386.799 353.805 386.883C354.026 386.966 354.189 387.072 354.293 387.199C354.397 387.324 354.47 387.483 354.512 387.676C354.535 387.796 354.547 388.012 354.547 388.324V389.262C354.547 389.915 354.561 390.329 354.59 390.504C354.621 390.676 354.681 390.841 354.77 391H354.035C353.962 390.854 353.915 390.684 353.895 390.488ZM353.836 388.918C353.581 389.022 353.198 389.111 352.688 389.184C352.398 389.225 352.194 389.272 352.074 389.324C351.954 389.376 351.862 389.453 351.797 389.555C351.732 389.654 351.699 389.764 351.699 389.887C351.699 390.074 351.77 390.23 351.91 390.355C352.053 390.48 352.262 390.543 352.535 390.543C352.806 390.543 353.047 390.484 353.258 390.367C353.469 390.247 353.624 390.085 353.723 389.879C353.798 389.72 353.836 389.486 353.836 389.176V388.918ZM355.625 391V385.273H356.328V391H355.625ZM359.707 391V385.273H361.855C362.293 385.273 362.643 385.332 362.906 385.449C363.172 385.564 363.379 385.742 363.527 385.984C363.678 386.224 363.754 386.475 363.754 386.738C363.754 386.983 363.688 387.214 363.555 387.43C363.422 387.646 363.221 387.82 362.953 387.953C363.299 388.055 363.565 388.228 363.75 388.473C363.938 388.717 364.031 389.007 364.031 389.34C364.031 389.608 363.974 389.858 363.859 390.09C363.747 390.319 363.608 390.496 363.441 390.621C363.275 390.746 363.065 390.841 362.812 390.906C362.562 390.969 362.255 391 361.891 391H359.707ZM360.465 387.68H361.703C362.039 387.68 362.28 387.658 362.426 387.613C362.618 387.556 362.763 387.461 362.859 387.328C362.958 387.195 363.008 387.029 363.008 386.828C363.008 386.638 362.962 386.471 362.871 386.328C362.78 386.182 362.65 386.083 362.48 386.031C362.311 385.977 362.021 385.949 361.609 385.949H360.465V387.68ZM360.465 390.324H361.891C362.135 390.324 362.307 390.315 362.406 390.297C362.581 390.266 362.727 390.214 362.844 390.141C362.961 390.068 363.057 389.962 363.133 389.824C363.208 389.684 363.246 389.522 363.246 389.34C363.246 389.126 363.191 388.941 363.082 388.785C362.973 388.626 362.82 388.516 362.625 388.453C362.432 388.388 362.154 388.355 361.789 388.355H360.465V390.324ZM367.824 389.664L368.551 389.754C368.436 390.178 368.224 390.508 367.914 390.742C367.604 390.977 367.208 391.094 366.727 391.094C366.12 391.094 365.638 390.908 365.281 390.535C364.927 390.16 364.75 389.635 364.75 388.961C364.75 388.263 364.93 387.721 365.289 387.336C365.648 386.951 366.115 386.758 366.688 386.758C367.242 386.758 367.695 386.947 368.047 387.324C368.398 387.702 368.574 388.233 368.574 388.918C368.574 388.96 368.573 389.022 368.57 389.105H365.477C365.503 389.561 365.632 389.91 365.863 390.152C366.095 390.395 366.384 390.516 366.73 390.516C366.988 390.516 367.208 390.448 367.391 390.312C367.573 390.177 367.717 389.961 367.824 389.664ZM365.516 388.527H367.832C367.801 388.178 367.712 387.917 367.566 387.742C367.342 387.471 367.052 387.336 366.695 387.336C366.372 387.336 366.1 387.444 365.879 387.66C365.66 387.876 365.539 388.165 365.516 388.527ZM369.422 391V385.273H370.125V391H369.422ZM372.754 390.371L372.855 390.992C372.658 391.034 372.48 391.055 372.324 391.055C372.069 391.055 371.871 391.014 371.73 390.934C371.59 390.853 371.491 390.747 371.434 390.617C371.376 390.484 371.348 390.207 371.348 389.785V387.398H370.832V386.852H371.348V385.824L372.047 385.402V386.852H372.754V387.398H372.047V389.824C372.047 390.025 372.059 390.154 372.082 390.211C372.108 390.268 372.148 390.314 372.203 390.348C372.26 390.382 372.341 390.398 372.445 390.398C372.523 390.398 372.626 390.389 372.754 390.371Z" fill="#353555"/>
<path d="M496.755 511V504.558H497.63L501.014 509.616V504.558H501.831V511H500.957L497.573 505.938V511H496.755ZM503.009 507.862C503.009 506.793 503.296 505.957 503.87 505.353C504.444 504.747 505.186 504.443 506.094 504.443C506.688 504.443 507.225 504.585 507.702 504.87C508.18 505.154 508.543 505.551 508.792 506.061C509.044 506.567 509.17 507.143 509.17 507.788C509.17 508.441 509.038 509.025 508.774 509.541C508.511 510.057 508.137 510.448 507.654 510.714C507.17 510.978 506.649 511.11 506.089 511.11C505.483 511.11 504.941 510.963 504.463 510.67C503.986 510.377 503.624 509.978 503.378 509.471C503.132 508.964 503.009 508.428 503.009 507.862ZM503.888 507.875C503.888 508.652 504.096 509.264 504.512 509.712C504.931 510.158 505.455 510.38 506.085 510.38C506.727 510.38 507.254 510.155 507.667 509.704C508.083 509.252 508.291 508.612 508.291 507.783C508.291 507.259 508.202 506.802 508.023 506.412C507.847 506.02 507.588 505.716 507.245 505.502C506.905 505.286 506.523 505.177 506.098 505.177C505.495 505.177 504.975 505.385 504.538 505.801C504.104 506.214 503.888 506.906 503.888 507.875ZM510.286 511V504.558H513.143C513.717 504.558 514.153 504.616 514.452 504.733C514.751 504.848 514.99 505.051 515.168 505.344C515.347 505.637 515.437 505.961 515.437 506.315C515.437 506.772 515.289 507.158 514.993 507.471C514.697 507.785 514.24 507.984 513.622 508.069C513.847 508.177 514.019 508.284 514.136 508.39C514.385 508.618 514.621 508.904 514.843 509.247L515.964 511H514.892L514.039 509.66C513.79 509.273 513.585 508.977 513.424 508.772C513.263 508.567 513.118 508.423 512.989 508.341C512.863 508.259 512.734 508.202 512.602 508.17C512.505 508.149 512.347 508.139 512.127 508.139H511.139V511H510.286ZM511.139 507.401H512.971C513.361 507.401 513.666 507.361 513.885 507.282C514.105 507.2 514.272 507.071 514.386 506.896C514.5 506.717 514.558 506.523 514.558 506.315C514.558 506.011 514.446 505.76 514.224 505.564C514.004 505.368 513.655 505.27 513.178 505.27H511.139V507.401ZM518.258 511V505.318H516.135V504.558H521.242V505.318H519.11V511H518.258ZM522.147 511V504.558H523V507.203H526.348V504.558H527.201V511H526.348V507.963H523V511H522.147Z" fill="#454560"/>
<path d="M513.903 591V584.558H515.187L516.711 589.119C516.852 589.544 516.955 589.862 517.019 590.073C517.092 589.838 517.207 589.494 517.362 589.04L518.904 584.558H520.051V591H519.229V585.608L517.357 591H516.588L514.725 585.516V591H513.903ZM521.572 591V584.558H522.424V591H521.572ZM523.932 591V584.558H526.151C526.652 584.558 527.034 584.588 527.298 584.65C527.667 584.735 527.982 584.889 528.243 585.111C528.583 585.398 528.836 585.766 529.003 586.214C529.173 586.66 529.258 587.169 529.258 587.744C529.258 588.233 529.201 588.667 529.086 589.044C528.972 589.422 528.826 589.736 528.647 589.985C528.468 590.231 528.272 590.426 528.058 590.569C527.847 590.71 527.591 590.817 527.289 590.89C526.99 590.963 526.646 591 526.256 591H523.932ZM524.784 590.24H526.16C526.584 590.24 526.917 590.2 527.157 590.121C527.4 590.042 527.594 589.931 527.737 589.787C527.939 589.585 528.096 589.314 528.208 588.974C528.322 588.631 528.379 588.217 528.379 587.73C528.379 587.057 528.268 586.54 528.045 586.179C527.825 585.816 527.557 585.573 527.241 585.45C527.012 585.362 526.645 585.318 526.138 585.318H524.784V590.24ZM530.4 591V584.558H531.253V590.24H534.426V591H530.4ZM534.738 591L537.212 584.558H538.13L540.767 591H539.796L539.044 589.049H536.351L535.643 591H534.738ZM536.597 588.354H538.781L538.108 586.57C537.903 586.028 537.751 585.583 537.651 585.234C537.569 585.647 537.454 586.058 537.304 586.465L536.597 588.354ZM541.439 591V584.558H542.314L545.698 589.616V584.558H546.515V591H545.641L542.257 585.938V591H541.439ZM547.952 591V584.558H550.171C550.672 584.558 551.055 584.588 551.318 584.65C551.688 584.735 552.002 584.889 552.263 585.111C552.603 585.398 552.856 585.766 553.023 586.214C553.193 586.66 553.278 587.169 553.278 587.744C553.278 588.233 553.221 588.667 553.107 589.044C552.993 589.422 552.846 589.736 552.667 589.985C552.489 590.231 552.292 590.426 552.079 590.569C551.868 590.71 551.611 590.817 551.31 590.89C551.011 590.963 550.667 591 550.277 591H547.952ZM548.805 590.24H550.18C550.605 590.24 550.938 590.2 551.178 590.121C551.421 590.042 551.614 589.931 551.758 589.787C551.96 589.585 552.117 589.314 552.228 588.974C552.342 588.631 552.399 588.217 552.399 587.73C552.399 587.057 552.288 586.54 552.065 586.179C551.846 585.816 551.578 585.573 551.261 585.45C551.033 585.362 550.665 585.318 550.158 585.318H548.805V590.24ZM554.166 588.93L554.97 588.86C555.008 589.182 555.096 589.447 555.234 589.655C555.375 589.86 555.591 590.027 555.884 590.156C556.177 590.282 556.507 590.345 556.873 590.345C557.198 590.345 557.485 590.297 557.734 590.2C557.983 590.104 558.168 589.972 558.288 589.805C558.411 589.635 558.473 589.45 558.473 589.251C558.473 589.049 558.414 588.873 558.297 588.724C558.18 588.571 557.986 588.444 557.717 588.341C557.544 588.274 557.162 588.17 556.57 588.029C555.978 587.886 555.563 587.751 555.326 587.625C555.019 587.464 554.789 587.265 554.636 587.027C554.487 586.787 554.412 586.519 554.412 586.223C554.412 585.898 554.504 585.595 554.689 585.313C554.874 585.029 555.143 584.814 555.498 584.667C555.852 584.521 556.246 584.448 556.68 584.448C557.157 584.448 557.578 584.525 557.941 584.681C558.307 584.833 558.588 585.059 558.785 585.357C558.981 585.656 559.086 585.995 559.101 586.373L558.284 586.434C558.24 586.027 558.09 585.719 557.835 585.511C557.583 585.303 557.21 585.199 556.715 585.199C556.199 585.199 555.823 585.294 555.585 585.485C555.351 585.672 555.234 585.899 555.234 586.166C555.234 586.397 555.317 586.588 555.484 586.737C555.648 586.887 556.076 587.041 556.768 587.199C557.462 587.354 557.938 587.49 558.196 587.607C558.571 587.78 558.848 588 559.026 588.267C559.205 588.53 559.294 588.835 559.294 589.181C559.294 589.523 559.196 589.847 559 590.152C558.804 590.454 558.521 590.689 558.152 590.859C557.786 591.026 557.373 591.11 556.913 591.11C556.33 591.11 555.84 591.025 555.445 590.855C555.052 590.685 554.743 590.43 554.518 590.09C554.295 589.748 554.178 589.361 554.166 588.93Z" fill="#454560"/>
<path d="M520.646 708.93L521.45 708.86C521.488 709.182 521.576 709.447 521.713 709.655C521.854 709.86 522.071 710.027 522.364 710.156C522.657 710.282 522.986 710.345 523.353 710.345C523.678 710.345 523.965 710.297 524.214 710.2C524.463 710.104 524.647 709.972 524.768 709.805C524.891 709.635 524.952 709.45 524.952 709.251C524.952 709.049 524.894 708.873 524.776 708.724C524.659 708.571 524.466 708.444 524.196 708.341C524.023 708.274 523.641 708.17 523.049 708.029C522.458 707.886 522.043 707.751 521.806 707.625C521.498 707.464 521.268 707.265 521.116 707.027C520.966 706.787 520.892 706.519 520.892 706.223C520.892 705.898 520.984 705.595 521.168 705.313C521.353 705.029 521.623 704.814 521.977 704.667C522.332 704.521 522.726 704.448 523.159 704.448C523.637 704.448 524.057 704.525 524.42 704.681C524.787 704.833 525.068 705.059 525.264 705.357C525.46 705.656 525.566 705.995 525.581 706.373L524.763 706.434C524.719 706.027 524.57 705.719 524.315 705.511C524.063 705.303 523.689 705.199 523.194 705.199C522.679 705.199 522.302 705.294 522.065 705.485C521.831 705.672 521.713 705.899 521.713 706.166C521.713 706.397 521.797 706.588 521.964 706.737C522.128 706.887 522.556 707.041 523.247 707.199C523.941 707.354 524.417 707.49 524.675 707.607C525.05 707.78 525.327 708 525.506 708.267C525.685 708.53 525.774 708.835 525.774 709.181C525.774 709.523 525.676 709.847 525.479 710.152C525.283 710.454 525 710.689 524.631 710.859C524.265 711.026 523.852 711.11 523.392 711.11C522.809 711.11 522.32 711.025 521.924 710.855C521.532 710.685 521.223 710.43 520.997 710.09C520.774 709.748 520.657 709.361 520.646 708.93ZM526.679 707.862C526.679 706.793 526.966 705.957 527.541 705.353C528.115 704.747 528.856 704.443 529.764 704.443C530.359 704.443 530.895 704.585 531.373 704.87C531.85 705.154 532.213 705.551 532.462 706.061C532.714 706.567 532.84 707.143 532.84 707.788C532.84 708.441 532.708 709.025 532.445 709.541C532.181 710.057 531.808 710.448 531.324 710.714C530.841 710.978 530.319 711.11 529.76 711.11C529.153 711.11 528.611 710.963 528.134 710.67C527.656 710.377 527.294 709.978 527.048 709.471C526.802 708.964 526.679 708.428 526.679 707.862ZM527.558 707.875C527.558 708.652 527.766 709.264 528.182 709.712C528.601 710.158 529.125 710.38 529.755 710.38C530.397 710.38 530.924 710.155 531.337 709.704C531.753 709.252 531.961 708.612 531.961 707.783C531.961 707.259 531.872 706.802 531.693 706.412C531.518 706.02 531.258 705.716 530.916 705.502C530.576 705.286 530.193 705.177 529.769 705.177C529.165 705.177 528.645 705.385 528.208 705.801C527.775 706.214 527.558 706.906 527.558 707.875ZM538.171 704.558H539.023V708.28C539.023 708.927 538.95 709.441 538.804 709.822C538.657 710.203 538.392 710.514 538.008 710.754C537.627 710.991 537.126 711.11 536.505 711.11C535.902 711.11 535.408 711.006 535.024 710.798C534.641 710.59 534.367 710.29 534.203 709.897C534.039 709.501 533.957 708.962 533.957 708.28V704.558H534.809V708.275C534.809 708.835 534.86 709.248 534.963 709.515C535.068 709.778 535.247 709.982 535.499 710.125C535.754 710.269 536.064 710.341 536.431 710.341C537.058 710.341 537.504 710.199 537.771 709.915C538.038 709.63 538.171 709.084 538.171 708.275V704.558ZM542.086 711V705.318H539.964V704.558H545.07V705.318H542.939V711H542.086ZM545.976 711V704.558H546.828V707.203H550.177V704.558H551.029V711H550.177V707.963H546.828V711H545.976Z" fill="#454560"/>
<path d="M338.228 711L336.518 704.558H337.393L338.373 708.781C338.478 709.223 338.569 709.663 338.645 710.099C338.809 709.411 338.906 709.014 338.935 708.908L340.161 704.558H341.189L342.112 707.818C342.344 708.627 342.511 709.387 342.613 710.099C342.695 709.692 342.802 709.225 342.934 708.697L343.945 704.558H344.802L343.035 711H342.213L340.855 706.091C340.741 705.681 340.674 705.429 340.653 705.335C340.586 705.631 340.523 705.883 340.464 706.091L339.098 711H338.228ZM344.56 711L347.034 704.558H347.953L350.589 711H349.618L348.867 709.049H346.173L345.465 711H344.56ZM346.419 708.354H348.603L347.931 706.57C347.726 706.028 347.573 705.583 347.474 705.234C347.392 705.647 347.276 706.058 347.126 706.465L346.419 708.354ZM351.235 711V704.558H352.088V710.24H355.261V711H351.235ZM356.298 711V704.558H360.956V705.318H357.15V707.291H360.714V708.047H357.15V710.24H361.105V711H356.298ZM361.993 708.93L362.797 708.86C362.835 709.182 362.923 709.447 363.061 709.655C363.202 709.86 363.418 710.027 363.711 710.156C364.004 710.282 364.334 710.345 364.7 710.345C365.025 710.345 365.312 710.297 365.562 710.2C365.811 710.104 365.995 709.972 366.115 709.805C366.238 709.635 366.3 709.45 366.3 709.251C366.3 709.049 366.241 708.873 366.124 708.724C366.007 708.571 365.813 708.444 365.544 708.341C365.371 708.274 364.989 708.17 364.397 708.029C363.805 707.886 363.391 707.751 363.153 707.625C362.846 707.464 362.616 707.265 362.463 707.027C362.314 706.787 362.239 706.519 362.239 706.223C362.239 705.898 362.332 705.595 362.516 705.313C362.701 705.029 362.97 704.814 363.325 704.667C363.679 704.521 364.073 704.448 364.507 704.448C364.984 704.448 365.405 704.525 365.768 704.681C366.134 704.833 366.416 705.059 366.612 705.357C366.808 705.656 366.914 705.995 366.928 706.373L366.111 706.434C366.067 706.027 365.917 705.719 365.663 705.511C365.411 705.303 365.037 705.199 364.542 705.199C364.026 705.199 363.65 705.294 363.413 705.485C363.178 705.672 363.061 705.899 363.061 706.166C363.061 706.397 363.145 706.588 363.312 706.737C363.476 706.887 363.903 707.041 364.595 707.199C365.289 707.354 365.765 707.49 366.023 707.607C366.398 707.78 366.675 708 366.854 708.267C367.032 708.53 367.122 708.835 367.122 709.181C367.122 709.523 367.023 709.847 366.827 710.152C366.631 710.454 366.348 710.689 365.979 710.859C365.613 711.026 365.2 711.11 364.74 711.11C364.157 711.11 363.667 711.025 363.272 710.855C362.879 710.685 362.57 710.43 362.345 710.09C362.122 709.748 362.005 709.361 361.993 708.93Z" fill="#454560"/>
<path d="M314.414 829.16L315.129 829.098C315.163 829.384 315.241 829.62 315.363 829.805C315.488 829.987 315.681 830.135 315.941 830.25C316.202 830.362 316.495 830.418 316.82 830.418C317.109 830.418 317.365 830.375 317.586 830.289C317.807 830.203 317.971 830.086 318.078 829.938C318.188 829.786 318.242 829.622 318.242 829.445C318.242 829.266 318.19 829.109 318.086 828.977C317.982 828.841 317.81 828.728 317.57 828.637C317.417 828.577 317.077 828.484 316.551 828.359C316.025 828.232 315.656 828.112 315.445 828C315.172 827.857 314.967 827.68 314.832 827.469C314.699 827.255 314.633 827.017 314.633 826.754C314.633 826.465 314.715 826.195 314.879 825.945C315.043 825.693 315.283 825.501 315.598 825.371C315.913 825.241 316.263 825.176 316.648 825.176C317.073 825.176 317.447 825.245 317.77 825.383C318.095 825.518 318.345 825.719 318.52 825.984C318.694 826.25 318.788 826.551 318.801 826.887L318.074 826.941C318.035 826.579 317.902 826.306 317.676 826.121C317.452 825.936 317.12 825.844 316.68 825.844C316.221 825.844 315.887 825.928 315.676 826.098C315.467 826.264 315.363 826.466 315.363 826.703C315.363 826.909 315.438 827.078 315.586 827.211C315.732 827.344 316.112 827.48 316.727 827.621C317.344 827.759 317.767 827.88 317.996 827.984C318.329 828.138 318.576 828.333 318.734 828.57C318.893 828.805 318.973 829.076 318.973 829.383C318.973 829.688 318.885 829.975 318.711 830.246C318.536 830.514 318.285 830.724 317.957 830.875C317.632 831.023 317.264 831.098 316.855 831.098C316.337 831.098 315.902 831.022 315.551 830.871C315.202 830.72 314.927 830.493 314.727 830.191C314.529 829.887 314.424 829.543 314.414 829.16ZM321.008 831L319.488 825.273H320.266L321.137 829.027C321.23 829.421 321.311 829.811 321.379 830.199C321.525 829.587 321.611 829.234 321.637 829.141L322.727 825.273H323.641L324.461 828.172C324.667 828.891 324.815 829.566 324.906 830.199C324.979 829.837 325.074 829.422 325.191 828.953L326.09 825.273H326.852L325.281 831H324.551L323.344 826.637C323.242 826.272 323.182 826.048 323.164 825.965C323.104 826.228 323.048 826.452 322.996 826.637L321.781 831H321.008Z" fill="#353555"/>
<path d="M670.785 751V745.273H671.543V750.324H674.363V751H670.785ZM675.039 748.211C675.039 747.26 675.294 746.517 675.805 745.98C676.315 745.441 676.974 745.172 677.781 745.172C678.31 745.172 678.786 745.298 679.211 745.551C679.635 745.803 679.958 746.156 680.18 746.609C680.404 747.06 680.516 747.572 680.516 748.145C680.516 748.725 680.398 749.245 680.164 749.703C679.93 750.161 679.598 750.509 679.168 750.746C678.738 750.98 678.275 751.098 677.777 751.098C677.238 751.098 676.757 750.967 676.332 750.707C675.908 750.447 675.586 750.091 675.367 749.641C675.148 749.19 675.039 748.714 675.039 748.211ZM675.82 748.223C675.82 748.913 676.005 749.457 676.375 749.855C676.747 750.251 677.214 750.449 677.773 750.449C678.344 750.449 678.812 750.249 679.18 749.848C679.549 749.447 679.734 748.878 679.734 748.141C679.734 747.674 679.655 747.268 679.496 746.922C679.34 746.573 679.109 746.303 678.805 746.113C678.503 745.921 678.163 745.824 677.785 745.824C677.249 745.824 676.786 746.009 676.398 746.379C676.013 746.746 675.82 747.361 675.82 748.223ZM681.488 751V745.273H682.266L685.273 749.77V745.273H686V751H685.223L682.215 746.5V751H681.488ZM687.277 751V745.273H689.25C689.695 745.273 690.035 745.301 690.27 745.355C690.598 745.431 690.878 745.568 691.109 745.766C691.411 746.021 691.637 746.348 691.785 746.746C691.936 747.142 692.012 747.595 692.012 748.105C692.012 748.54 691.961 748.926 691.859 749.262C691.758 749.598 691.628 749.876 691.469 750.098C691.31 750.316 691.135 750.49 690.945 750.617C690.758 750.742 690.53 750.837 690.262 750.902C689.996 750.967 689.69 751 689.344 751H687.277ZM688.035 750.324H689.258C689.635 750.324 689.931 750.289 690.145 750.219C690.361 750.148 690.533 750.049 690.66 749.922C690.84 749.742 690.979 749.501 691.078 749.199C691.18 748.895 691.23 748.526 691.23 748.094C691.23 747.495 691.132 747.035 690.934 746.715C690.738 746.392 690.5 746.176 690.219 746.066C690.016 745.988 689.689 745.949 689.238 745.949H688.035V750.324ZM692.828 748.211C692.828 747.26 693.083 746.517 693.594 745.98C694.104 745.441 694.763 745.172 695.57 745.172C696.099 745.172 696.576 745.298 697 745.551C697.424 745.803 697.747 746.156 697.969 746.609C698.193 747.06 698.305 747.572 698.305 748.145C698.305 748.725 698.188 749.245 697.953 749.703C697.719 750.161 697.387 750.509 696.957 750.746C696.527 750.98 696.064 751.098 695.566 751.098C695.027 751.098 694.546 750.967 694.121 750.707C693.697 750.447 693.375 750.091 693.156 749.641C692.938 749.19 692.828 748.714 692.828 748.211ZM693.609 748.223C693.609 748.913 693.794 749.457 694.164 749.855C694.536 750.251 695.003 750.449 695.562 750.449C696.133 750.449 696.602 750.249 696.969 749.848C697.339 749.447 697.523 748.878 697.523 748.141C697.523 747.674 697.444 747.268 697.285 746.922C697.129 746.573 696.898 746.303 696.594 746.113C696.292 745.921 695.952 745.824 695.574 745.824C695.038 745.824 694.576 746.009 694.188 746.379C693.802 746.746 693.609 747.361 693.609 748.223ZM699.277 751V745.273H700.055L703.062 749.77V745.273H703.789V751H703.012L700.004 746.5V751H699.277ZM706.676 751.098L708.336 745.176H708.898L707.242 751.098H706.676ZM711.488 749.16L712.203 749.098C712.237 749.384 712.315 749.62 712.438 749.805C712.562 749.987 712.755 750.135 713.016 750.25C713.276 750.362 713.569 750.418 713.895 750.418C714.184 750.418 714.439 750.375 714.66 750.289C714.882 750.203 715.046 750.086 715.152 749.938C715.262 749.786 715.316 749.622 715.316 749.445C715.316 749.266 715.264 749.109 715.16 748.977C715.056 748.841 714.884 748.728 714.645 748.637C714.491 748.577 714.151 748.484 713.625 748.359C713.099 748.232 712.73 748.112 712.52 748C712.246 747.857 712.042 747.68 711.906 747.469C711.773 747.255 711.707 747.017 711.707 746.754C711.707 746.465 711.789 746.195 711.953 745.945C712.117 745.693 712.357 745.501 712.672 745.371C712.987 745.241 713.337 745.176 713.723 745.176C714.147 745.176 714.521 745.245 714.844 745.383C715.169 745.518 715.419 745.719 715.594 745.984C715.768 746.25 715.862 746.551 715.875 746.887L715.148 746.941C715.109 746.579 714.977 746.306 714.75 746.121C714.526 745.936 714.194 745.844 713.754 745.844C713.296 745.844 712.961 745.928 712.75 746.098C712.542 746.264 712.438 746.466 712.438 746.703C712.438 746.909 712.512 747.078 712.66 747.211C712.806 747.344 713.186 747.48 713.801 747.621C714.418 747.759 714.841 747.88 715.07 747.984C715.404 748.138 715.65 748.333 715.809 748.57C715.967 748.805 716.047 749.076 716.047 749.383C716.047 749.688 715.96 749.975 715.785 750.246C715.611 750.514 715.359 750.724 715.031 750.875C714.706 751.023 714.339 751.098 713.93 751.098C713.411 751.098 712.977 751.022 712.625 750.871C712.276 750.72 712.001 750.493 711.801 750.191C711.603 749.887 711.499 749.543 711.488 749.16ZM717.098 751V745.273H721.238V745.949H717.855V747.703H721.023V748.375H717.855V750.324H721.371V751H717.098Z" fill="#353555"/>
<path d="M125.934 495V489.273H126.711L129.719 493.77V489.273H130.445V495H129.668L126.66 490.5V495H125.934ZM131.832 495V494.199H132.633V495H131.832ZM134.078 495V489.273H134.836V495H134.078ZM136.188 495V489.273H138.727C139.237 489.273 139.625 489.326 139.891 489.43C140.156 489.531 140.368 489.712 140.527 489.973C140.686 490.233 140.766 490.521 140.766 490.836C140.766 491.242 140.634 491.585 140.371 491.863C140.108 492.142 139.702 492.319 139.152 492.395C139.353 492.491 139.505 492.586 139.609 492.68C139.831 492.883 140.04 493.137 140.238 493.441L141.234 495H140.281L139.523 493.809C139.302 493.465 139.12 493.202 138.977 493.02C138.833 492.837 138.704 492.71 138.59 492.637C138.478 492.564 138.363 492.513 138.246 492.484C138.16 492.466 138.02 492.457 137.824 492.457H136.945V495H136.188ZM136.945 491.801H138.574C138.921 491.801 139.191 491.766 139.387 491.695C139.582 491.622 139.73 491.508 139.832 491.352C139.934 491.193 139.984 491.021 139.984 490.836C139.984 490.565 139.885 490.342 139.688 490.168C139.492 489.993 139.182 489.906 138.758 489.906H136.945V491.801ZM141.973 495V489.273H146.113V489.949H142.73V491.703H145.898V492.375H142.73V494.324H146.246V495H141.973Z" fill="#454560"/>
<path opacity="0.5" d="M646.4 755C648.057 755 649.4 753.657 649.4 752C649.4 750.343 648.057 749 646.4 749C644.744 749 643.4 750.343 643.4 752C643.4 753.657 644.744 755 646.4 755Z" fill="#FF4D6D"/>
<path d="M635.224 745V739.989H635.887V744.409H638.354V745H635.224ZM638.84 743.185C638.84 742.513 639.027 742.015 639.4 741.691C639.713 741.423 640.093 741.288 640.542 741.288C641.041 741.288 641.449 741.452 641.766 741.78C642.082 742.106 642.241 742.557 642.241 743.134C642.241 743.601 642.17 743.969 642.029 744.238C641.89 744.504 641.686 744.712 641.417 744.86C641.15 745.008 640.859 745.082 640.542 745.082C640.034 745.082 639.623 744.919 639.308 744.593C638.996 744.267 638.84 743.798 638.84 743.185ZM639.472 743.185C639.472 743.65 639.574 743.999 639.776 744.231C639.979 744.461 640.234 744.576 640.542 744.576C640.847 744.576 641.101 744.46 641.304 744.228C641.507 743.995 641.608 743.641 641.608 743.165C641.608 742.716 641.506 742.376 641.301 742.146C641.098 741.914 640.845 741.797 640.542 741.797C640.234 741.797 639.979 741.912 639.776 742.143C639.574 742.373 639.472 742.72 639.472 743.185ZM642.965 745V741.37H643.519V741.886C643.786 741.487 644.171 741.288 644.674 741.288C644.893 741.288 645.094 741.328 645.276 741.408C645.46 741.485 645.598 741.588 645.689 741.715C645.781 741.843 645.844 741.994 645.881 742.17C645.904 742.284 645.915 742.483 645.915 742.768V745H645.3V742.792C645.3 742.541 645.276 742.354 645.228 742.231C645.18 742.106 645.095 742.007 644.972 741.934C644.851 741.859 644.708 741.821 644.544 741.821C644.282 741.821 644.056 741.904 643.864 742.071C643.675 742.237 643.581 742.553 643.581 743.018V745H642.965ZM649.217 745V744.542C648.987 744.902 648.648 745.082 648.202 745.082C647.912 745.082 647.646 745.002 647.402 744.843C647.16 744.683 646.972 744.461 646.838 744.176C646.706 743.889 646.64 743.56 646.64 743.188C646.64 742.826 646.7 742.498 646.821 742.204C646.942 741.908 647.123 741.681 647.364 741.524C647.606 741.367 647.876 741.288 648.174 741.288C648.393 741.288 648.588 741.335 648.759 741.428C648.93 741.519 649.069 741.639 649.176 741.787V739.989H649.788V745H649.217ZM647.272 743.188C647.272 743.653 647.37 744.001 647.566 744.231C647.762 744.461 647.993 744.576 648.26 744.576C648.529 744.576 648.757 744.467 648.943 744.248C649.132 744.027 649.227 743.691 649.227 743.24C649.227 742.743 649.131 742.378 648.94 742.146C648.749 741.914 648.513 741.797 648.232 741.797C647.959 741.797 647.73 741.909 647.545 742.132C647.363 742.356 647.272 742.708 647.272 743.188ZM650.529 743.185C650.529 742.513 650.716 742.015 651.09 741.691C651.402 741.423 651.783 741.288 652.231 741.288C652.73 741.288 653.138 741.452 653.455 741.78C653.772 742.106 653.93 742.557 653.93 743.134C653.93 743.601 653.86 743.969 653.718 744.238C653.579 744.504 653.375 744.712 653.106 744.86C652.84 745.008 652.548 745.082 652.231 745.082C651.723 745.082 651.312 744.919 650.998 744.593C650.685 744.267 650.529 743.798 650.529 743.185ZM651.162 743.185C651.162 743.65 651.263 743.999 651.466 744.231C651.669 744.461 651.924 744.576 652.231 744.576C652.537 744.576 652.791 744.46 652.994 744.228C653.196 743.995 653.298 743.641 653.298 743.165C653.298 742.716 653.195 742.376 652.99 742.146C652.787 741.914 652.535 741.797 652.231 741.797C651.924 741.797 651.669 741.912 651.466 742.143C651.263 742.373 651.162 742.72 651.162 743.185ZM654.655 745V741.37H655.208V741.886C655.475 741.487 655.86 741.288 656.364 741.288C656.583 741.288 656.783 741.328 656.965 741.408C657.15 741.485 657.288 741.588 657.379 741.715C657.47 741.843 657.534 741.994 657.57 742.17C657.593 742.284 657.604 742.483 657.604 742.768V745H656.989V742.792C656.989 742.541 656.965 742.354 656.917 742.231C656.87 742.106 656.784 742.007 656.661 741.934C656.54 741.859 656.398 741.821 656.234 741.821C655.972 741.821 655.745 741.904 655.554 742.071C655.365 742.237 655.27 742.553 655.27 743.018V745H654.655Z" fill="#FF4D6D"/>
<path opacity="0.5" d="M476.801 596.6C478.458 596.6 479.801 595.257 479.801 593.6C479.801 591.943 478.458 590.6 476.801 590.6C475.144 590.6 473.801 591.943 473.801 593.6C473.801 595.257 475.144 596.6 476.801 596.6Z" fill="#7C3AED"/>
<path d="M459.524 586.6V581.589H460.522L461.708 585.137C461.817 585.468 461.897 585.715 461.947 585.879C462.004 585.697 462.093 585.429 462.214 585.076L463.414 581.589H464.306V586.6H463.667V582.406L462.21 586.6H461.612L460.163 582.334V586.6H459.524ZM467.666 586.152C467.438 586.346 467.218 586.483 467.006 586.562C466.796 586.642 466.571 586.682 466.329 586.682C465.93 586.682 465.624 586.585 465.41 586.392C465.195 586.196 465.088 585.946 465.088 585.643C465.088 585.465 465.128 585.304 465.208 585.158C465.29 585.01 465.396 584.891 465.526 584.802C465.658 584.713 465.806 584.646 465.97 584.601C466.091 584.569 466.273 584.538 466.517 584.508C467.014 584.449 467.38 584.378 467.614 584.296C467.617 584.212 467.618 584.159 467.618 584.136C467.618 583.885 467.56 583.708 467.443 583.606C467.286 583.467 467.053 583.397 466.743 583.397C466.453 583.397 466.239 583.449 466.1 583.551C465.963 583.652 465.862 583.83 465.796 584.088L465.194 584.006C465.249 583.748 465.339 583.541 465.464 583.384C465.59 583.224 465.771 583.102 466.008 583.018C466.245 582.931 466.519 582.888 466.832 582.888C467.141 582.888 467.393 582.925 467.587 582.998C467.781 583.07 467.923 583.163 468.014 583.274C468.105 583.384 468.169 583.523 468.206 583.691C468.226 583.796 468.236 583.985 468.236 584.259V585.079C468.236 585.651 468.249 586.013 468.274 586.166C468.301 586.316 468.354 586.461 468.431 586.6H467.789C467.725 586.472 467.684 586.323 467.666 586.152ZM467.614 584.778C467.391 584.869 467.056 584.947 466.609 585.011C466.356 585.047 466.178 585.088 466.073 585.134C465.968 585.179 465.887 585.247 465.83 585.335C465.773 585.422 465.745 585.519 465.745 585.626C465.745 585.79 465.806 585.927 465.929 586.036C466.055 586.146 466.237 586.2 466.476 586.2C466.713 586.2 466.924 586.149 467.108 586.046C467.293 585.942 467.429 585.799 467.515 585.619C467.581 585.48 467.614 585.275 467.614 585.004V584.778ZM469.193 586.6V582.97H469.747V583.486C470.014 583.088 470.399 582.888 470.902 582.888C471.121 582.888 471.322 582.928 471.504 583.008C471.688 583.085 471.826 583.188 471.917 583.315C472.009 583.443 472.072 583.595 472.109 583.77C472.132 583.884 472.143 584.083 472.143 584.368V586.6H471.528V584.392C471.528 584.141 471.504 583.955 471.456 583.832C471.408 583.706 471.323 583.607 471.2 583.534C471.079 583.459 470.937 583.421 470.772 583.421C470.51 583.421 470.284 583.505 470.092 583.671C469.903 583.837 469.809 584.153 469.809 584.618V586.6H469.193ZM475.458 585.271L476.063 585.349C475.997 585.766 475.828 586.093 475.554 586.33C475.283 586.565 474.949 586.682 474.553 586.682C474.056 586.682 473.656 586.52 473.353 586.197C473.052 585.871 472.902 585.405 472.902 584.799C472.902 584.407 472.967 584.064 473.097 583.77C473.227 583.476 473.424 583.256 473.688 583.11C473.955 582.962 474.244 582.888 474.556 582.888C474.95 582.888 475.273 582.988 475.523 583.189C475.774 583.387 475.935 583.67 476.005 584.037L475.407 584.129C475.35 583.885 475.249 583.702 475.103 583.579C474.959 583.456 474.785 583.394 474.58 583.394C474.27 583.394 474.018 583.506 473.825 583.729C473.631 583.95 473.534 584.301 473.534 584.782C473.534 585.269 473.628 585.624 473.814 585.845C474.001 586.066 474.245 586.176 474.546 586.176C474.787 586.176 474.989 586.102 475.151 585.954C475.313 585.806 475.415 585.578 475.458 585.271ZM476.59 586.6V581.589H477.205V583.387C477.492 583.055 477.854 582.888 478.292 582.888C478.561 582.888 478.794 582.942 478.993 583.049C479.191 583.154 479.332 583.299 479.417 583.486C479.503 583.673 479.546 583.944 479.546 584.3V586.6H478.931V584.3C478.931 583.992 478.864 583.769 478.729 583.63C478.597 583.489 478.409 583.418 478.166 583.418C477.983 583.418 477.811 583.466 477.649 583.562C477.49 583.655 477.376 583.783 477.308 583.944C477.239 584.106 477.205 584.329 477.205 584.614V586.6H476.59ZM482.971 585.431L483.607 585.51C483.507 585.881 483.321 586.169 483.05 586.375C482.779 586.58 482.432 586.682 482.011 586.682C481.48 586.682 481.058 586.519 480.746 586.193C480.436 585.865 480.281 585.406 480.281 584.816C480.281 584.205 480.438 583.731 480.753 583.394C481.067 583.057 481.475 582.888 481.977 582.888C482.462 582.888 482.858 583.053 483.166 583.384C483.474 583.714 483.627 584.179 483.627 584.778C483.627 584.815 483.626 584.869 483.624 584.942H480.917C480.94 585.341 481.053 585.646 481.255 585.858C481.458 586.07 481.711 586.176 482.014 586.176C482.24 586.176 482.432 586.117 482.592 585.999C482.751 585.88 482.878 585.691 482.971 585.431ZM480.951 584.437H482.978C482.951 584.131 482.873 583.902 482.746 583.75C482.55 583.513 482.296 583.394 481.983 583.394C481.701 583.394 481.463 583.489 481.269 583.678C481.078 583.867 480.972 584.12 480.951 584.437ZM484.137 585.517L484.745 585.421C484.779 585.665 484.874 585.852 485.029 585.981C485.186 586.111 485.405 586.176 485.685 586.176C485.968 586.176 486.177 586.119 486.314 586.005C486.451 585.889 486.519 585.754 486.519 585.599C486.519 585.46 486.459 585.35 486.338 585.271C486.254 585.216 486.044 585.146 485.709 585.062C485.258 584.948 484.944 584.85 484.769 584.768C484.596 584.684 484.464 584.569 484.373 584.423C484.284 584.275 484.239 584.112 484.239 583.934C484.239 583.772 484.276 583.623 484.349 583.486C484.424 583.347 484.525 583.232 484.653 583.141C484.749 583.07 484.878 583.011 485.042 582.963C485.209 582.913 485.387 582.888 485.576 582.888C485.861 582.888 486.11 582.929 486.324 583.011C486.541 583.093 486.7 583.205 486.803 583.346C486.905 583.485 486.976 583.672 487.015 583.907L486.413 583.989C486.386 583.802 486.306 583.656 486.174 583.551C486.044 583.446 485.859 583.394 485.62 583.394C485.338 583.394 485.136 583.441 485.015 583.534C484.894 583.628 484.834 583.737 484.834 583.862C484.834 583.942 484.859 584.014 484.909 584.078C484.959 584.144 485.038 584.198 485.145 584.242C485.207 584.264 485.388 584.317 485.688 584.399C486.124 584.515 486.427 584.611 486.598 584.686C486.771 584.759 486.906 584.866 487.004 585.007C487.102 585.149 487.151 585.324 487.151 585.534C487.151 585.739 487.091 585.932 486.97 586.115C486.852 586.295 486.68 586.435 486.454 586.535C486.229 586.633 485.973 586.682 485.688 586.682C485.217 586.682 484.857 586.584 484.608 586.388C484.362 586.192 484.205 585.902 484.137 585.517ZM489.226 586.05L489.315 586.593C489.142 586.63 488.987 586.648 488.85 586.648C488.627 586.648 488.454 586.613 488.331 586.542C488.208 586.471 488.121 586.379 488.071 586.265C488.021 586.149 487.996 585.906 487.996 585.537V583.449H487.544V582.97H487.996V582.071L488.607 581.702V582.97H489.226V583.449H488.607V585.571C488.607 585.747 488.618 585.86 488.638 585.91C488.661 585.96 488.696 586 488.744 586.029C488.794 586.059 488.865 586.074 488.956 586.074C489.024 586.074 489.114 586.066 489.226 586.05ZM492.316 585.431L492.952 585.51C492.851 585.881 492.666 586.169 492.395 586.375C492.123 586.58 491.777 586.682 491.355 586.682C490.825 586.682 490.403 586.519 490.091 586.193C489.781 585.865 489.626 585.406 489.626 584.816C489.626 584.205 489.783 583.731 490.098 583.394C490.412 583.057 490.82 582.888 491.321 582.888C491.807 582.888 492.203 583.053 492.511 583.384C492.818 583.714 492.972 584.179 492.972 584.778C492.972 584.815 492.971 584.869 492.969 584.942H490.262C490.285 585.341 490.397 585.646 490.6 585.858C490.803 586.07 491.056 586.176 491.359 586.176C491.584 586.176 491.777 586.117 491.937 585.999C492.096 585.88 492.222 585.691 492.316 585.431ZM490.296 584.437H492.323C492.295 584.131 492.218 583.902 492.09 583.75C491.894 583.513 491.64 583.394 491.328 583.394C491.046 583.394 490.807 583.489 490.614 583.678C490.422 583.867 490.316 584.12 490.296 584.437ZM493.721 586.6V582.97H494.274V583.521C494.416 583.263 494.546 583.093 494.664 583.011C494.785 582.929 494.917 582.888 495.061 582.888C495.268 582.888 495.479 582.954 495.693 583.086L495.481 583.657C495.331 583.568 495.18 583.524 495.03 583.524C494.895 583.524 494.775 583.565 494.667 583.647C494.56 583.727 494.484 583.838 494.438 583.982C494.37 584.201 494.336 584.44 494.336 584.7V586.6H493.721Z" fill="#7C3AED"/>
<path opacity="0.5" d="M400.801 399C402.458 399 403.801 397.657 403.801 396C403.801 394.343 402.458 393 400.801 393C399.144 393 397.801 394.343 397.801 396C397.801 397.657 399.144 399 400.801 399Z" fill="#00E5A0"/>
<path d="M385.386 389V383.989H389.009V384.581H386.049V386.115H388.821V386.703H386.049V388.409H389.125V389H385.386ZM392.317 389V388.542C392.087 388.902 391.749 389.082 391.302 389.082C391.013 389.082 390.746 389.002 390.502 388.843C390.261 388.683 390.073 388.461 389.938 388.176C389.806 387.889 389.74 387.56 389.74 387.188C389.74 386.826 389.801 386.498 389.921 386.204C390.042 385.908 390.223 385.681 390.465 385.524C390.706 385.367 390.976 385.288 391.275 385.288C391.494 385.288 391.688 385.335 391.859 385.428C392.03 385.519 392.169 385.639 392.276 385.787V383.989H392.888V389H392.317ZM390.373 387.188C390.373 387.653 390.471 388.001 390.667 388.231C390.862 388.461 391.094 388.576 391.36 388.576C391.629 388.576 391.857 388.467 392.044 388.248C392.233 388.027 392.328 387.691 392.328 387.24C392.328 386.743 392.232 386.378 392.041 386.146C391.849 385.914 391.613 385.797 391.333 385.797C391.06 385.797 390.831 385.909 390.646 386.132C390.464 386.356 390.373 386.708 390.373 387.188ZM393.862 384.697V383.989H394.478V384.697H393.862ZM393.862 389V385.37H394.478V389H393.862ZM395.417 389V385.37H395.971V385.886C396.238 385.487 396.623 385.288 397.126 385.288C397.345 385.288 397.546 385.328 397.728 385.408C397.913 385.485 398.05 385.588 398.142 385.715C398.233 385.843 398.297 385.994 398.333 386.17C398.356 386.284 398.367 386.483 398.367 386.768V389H397.752V386.792C397.752 386.541 397.728 386.354 397.68 386.231C397.632 386.106 397.547 386.007 397.424 385.934C397.303 385.859 397.161 385.821 396.997 385.821C396.735 385.821 396.508 385.904 396.316 386.071C396.127 386.237 396.033 386.553 396.033 387.018V389H395.417ZM399.881 389H399.311V383.989H399.926V385.777C400.186 385.451 400.517 385.288 400.92 385.288C401.144 385.288 401.354 385.334 401.553 385.425C401.753 385.514 401.917 385.64 402.045 385.804C402.175 385.966 402.276 386.162 402.349 386.392C402.422 386.622 402.458 386.868 402.458 387.13C402.458 387.752 402.305 388.233 401.997 388.573C401.689 388.912 401.32 389.082 400.89 389.082C400.461 389.082 400.125 388.903 399.881 388.545V389ZM399.875 387.158C399.875 387.593 399.934 387.907 400.052 388.101C400.246 388.418 400.508 388.576 400.838 388.576C401.107 388.576 401.34 388.46 401.536 388.228C401.732 387.993 401.83 387.644 401.83 387.182C401.83 386.708 401.735 386.358 401.546 386.132C401.359 385.907 401.132 385.794 400.866 385.794C400.597 385.794 400.364 385.911 400.168 386.146C399.972 386.378 399.875 386.716 399.875 387.158ZM405.589 389V388.467C405.307 388.877 404.923 389.082 404.438 389.082C404.223 389.082 404.023 389.041 403.836 388.959C403.651 388.877 403.514 388.774 403.422 388.651C403.333 388.526 403.271 388.373 403.234 388.193C403.209 388.073 403.197 387.881 403.197 387.619V385.37H403.812V387.383C403.812 387.705 403.825 387.921 403.85 388.033C403.888 388.194 403.97 388.322 404.096 388.416C404.221 388.507 404.376 388.552 404.561 388.552C404.745 388.552 404.918 388.506 405.08 388.412C405.242 388.316 405.356 388.188 405.422 388.026C405.49 387.862 405.524 387.625 405.524 387.315V385.37H406.14V389H405.589ZM407.1 389V385.37H407.654V385.92C407.795 385.663 407.925 385.493 408.043 385.411C408.164 385.329 408.296 385.288 408.44 385.288C408.647 385.288 408.858 385.354 409.072 385.486L408.86 386.057C408.71 385.968 408.56 385.924 408.409 385.924C408.275 385.924 408.154 385.965 408.047 386.047C407.94 386.127 407.863 386.238 407.818 386.382C407.75 386.601 407.715 386.84 407.715 387.1V389H407.1ZM409.325 389.301L409.923 389.39C409.948 389.574 410.018 389.709 410.132 389.793C410.285 389.907 410.493 389.964 410.757 389.964C411.042 389.964 411.262 389.907 411.417 389.793C411.572 389.679 411.677 389.52 411.731 389.314C411.763 389.189 411.778 388.926 411.776 388.525C411.507 388.842 411.172 389 410.771 389C410.272 389 409.886 388.82 409.612 388.46C409.339 388.1 409.202 387.668 409.202 387.165C409.202 386.818 409.265 386.499 409.39 386.208C409.515 385.914 409.697 385.687 409.934 385.527C410.173 385.368 410.453 385.288 410.774 385.288C411.203 385.288 411.556 385.461 411.834 385.808V385.37H412.401V388.508C412.401 389.073 412.343 389.473 412.227 389.708C412.113 389.944 411.931 390.131 411.68 390.268C411.432 390.405 411.125 390.473 410.761 390.473C410.328 390.473 409.978 390.375 409.711 390.179C409.445 389.986 409.316 389.693 409.325 389.301ZM409.834 387.12C409.834 387.596 409.929 387.944 410.118 388.163C410.307 388.381 410.544 388.491 410.829 388.491C411.112 388.491 411.349 388.382 411.54 388.166C411.731 387.947 411.827 387.605 411.827 387.141C411.827 386.696 411.728 386.361 411.53 386.136C411.334 385.91 411.097 385.797 410.819 385.797C410.545 385.797 410.313 385.909 410.122 386.132C409.93 386.353 409.834 386.683 409.834 387.12ZM413.334 389V383.989H413.95V385.787C414.237 385.454 414.599 385.288 415.037 385.288C415.306 385.288 415.539 385.342 415.737 385.449C415.936 385.554 416.077 385.699 416.161 385.886C416.248 386.073 416.291 386.344 416.291 386.7V389H415.676V386.7C415.676 386.392 415.609 386.169 415.474 386.03C415.342 385.889 415.154 385.818 414.91 385.818C414.728 385.818 414.556 385.866 414.394 385.961C414.235 386.055 414.121 386.182 414.052 386.344C413.984 386.506 413.95 386.729 413.95 387.014V389H413.334Z" fill="#00E5A0"/>
</g>
<defs>
<clipPath id="clip0_10283_2">
<rect width="800" height="888" fill="white"/>
</clipPath>
</defs>
</svg>
